<svg xmlns="http://www.w3.org/2000/svg" width="375" viewBox="0 0 375 375" height="375" version="1.0"><defs><clipPath id="a"><path d="M 84 41.183594 L 320 41.183594 L 320 331 L 84 331 Z M 84 41.183594"/></clipPath><clipPath id="b"><path d="M 65 41.183594 L 302 41.183594 L 302 333 L 65 333 Z M 65 41.183594"/></clipPath><clipPath id="c"><path d="M 110 216 L 121 216 L 121 229 L 110 229 Z M 110 216"/></clipPath><clipPath id="d"><path d="M 94.246094 185.347656 L 258.601562 111.945312 L 293.464844 190.015625 L 129.109375 263.414062 Z M 94.246094 185.347656"/></clipPath><clipPath id="e"><path d="M 94.246094 185.347656 L 258.601562 111.945312 L 293.464844 190.015625 L 129.109375 263.414062 Z M 94.246094 185.347656"/></clipPath><clipPath id="f"><path d="M 241 131 L 275 131 L 275 187 L 241 187 Z M 241 131"/></clipPath><clipPath id="g"><path d="M 94.246094 185.347656 L 258.601562 111.945312 L 293.464844 190.015625 L 129.109375 263.414062 Z M 94.246094 185.347656"/></clipPath><clipPath id="h"><path d="M 94.246094 185.347656 L 258.601562 111.945312 L 293.464844 190.015625 L 129.109375 263.414062 Z M 94.246094 185.347656"/></clipPath><clipPath id="i"><path d="M 267 146 L 278 146 L 278 159 L 267 159 Z M 267 146"/></clipPath><clipPath id="j"><path d="M 94.246094 185.347656 L 258.601562 111.945312 L 293.464844 190.015625 L 129.109375 263.414062 Z M 94.246094 185.347656"/></clipPath><clipPath id="k"><path d="M 94.246094 185.347656 L 258.601562 111.945312 L 293.464844 190.015625 L 129.109375 263.414062 Z M 94.246094 185.347656"/></clipPath><clipPath id="l"><path d="M 211 128 L 261 128 L 261 210 L 211 210 Z M 211 128"/></clipPath><clipPath id="m"><path d="M 94.246094 185.347656 L 258.601562 111.945312 L 293.464844 190.015625 L 129.109375 263.414062 Z M 94.246094 185.347656"/></clipPath><clipPath id="n"><path d="M 94.246094 185.347656 L 258.601562 111.945312 L 293.464844 190.015625 L 129.109375 263.414062 Z M 94.246094 185.347656"/></clipPath><clipPath id="o"><path d="M 163 170 L 225 170 L 225 205 L 163 205 Z M 163 170"/></clipPath><clipPath id="p"><path d="M 94.246094 185.347656 L 258.601562 111.945312 L 293.464844 190.015625 L 129.109375 263.414062 Z M 94.246094 185.347656"/></clipPath><clipPath id="q"><path d="M 94.246094 185.347656 L 258.601562 111.945312 L 293.464844 190.015625 L 129.109375 263.414062 Z M 94.246094 185.347656"/></clipPath><clipPath id="r"><path d="M 126 166 L 176 166 L 176 247 L 126 247 Z M 126 166"/></clipPath><clipPath id="s"><path d="M 94.246094 185.347656 L 258.601562 111.945312 L 293.464844 190.015625 L 129.109375 263.414062 Z M 94.246094 185.347656"/></clipPath><clipPath id="t"><path d="M 94.246094 185.347656 L 258.601562 111.945312 L 293.464844 190.015625 L 129.109375 263.414062 Z M 94.246094 185.347656"/></clipPath><clipPath id="u"><path d="M 112 188 L 147 188 L 147 245 L 112 245 Z M 112 188"/></clipPath><clipPath id="v"><path d="M 94.246094 185.347656 L 258.601562 111.945312 L 293.464844 190.015625 L 129.109375 263.414062 Z M 94.246094 185.347656"/></clipPath><clipPath id="w"><path d="M 94.246094 185.347656 L 258.601562 111.945312 L 293.464844 190.015625 L 129.109375 263.414062 Z M 94.246094 185.347656"/></clipPath></defs><g clip-path="url(#a)"><path fill="#6D98F4" d="M 314.800781 325.742188 C 309.46875 330.875 300.921875 329.898438 294.167969 329.578125 C 283.40625 329.066406 272.660156 328.613281 261.882812 328.480469 C 231.742188 328.101562 201.59375 328.226562 171.453125 328.398438 C 153.222656 328.503906 138.871094 330.246094 120.652344 329.867188 C 112.863281 329.707031 103.492188 332.085938 96.699219 328.976562 C 85.273438 323.734375 86.0625 301.488281 86.152344 291.640625 C 86.371094 267.40625 84.988281 244.445312 84.988281 220.074219 C 84.988281 182.042969 84.988281 144.011719 84.988281 105.976562 C 84.988281 93.734375 84.15625 81.5 84.429688 69.257812 C 84.628906 60.304688 84.128906 47.363281 94.441406 45.015625 C 110.15625 41.4375 126.640625 41.464844 142.449219 42.621094 C 159.125 43.84375 173.902344 41.796875 190.605469 41.929688 C 209.089844 42.074219 229.484375 42.960938 247.96875 42.957031 C 264.039062 42.953125 275.109375 41.503906 291.148438 42.054688 C 299.792969 42.351562 314.347656 47.046875 318.070312 55.640625 C 319.453125 58.835938 320.59375 71.34375 319.535156 79.847656 C 317.710938 94.5 316.984375 109.695312 317.425781 124.449219 C 318.382812 156.253906 318.789062 188.125 318.160156 219.933594 C 317.839844 235.917969 318.835938 251.886719 318.054688 267.867188 C 317.273438 283.96875 320.03125 300.507812 318.699219 316.425781 C 318.335938 320.730469 316.917969 323.707031 314.800781 325.742188 Z M 314.800781 325.742188"/></g><path fill="#FFF" d="M 306.828125 323.5 C 301.640625 328.523438 293.332031 327.566406 286.761719 327.253906 C 276.296875 326.753906 265.851562 326.3125 255.371094 326.179688 C 226.0625 325.808594 196.75 325.929688 167.441406 326.101562 C 149.714844 326.203125 135.761719 327.90625 118.046875 327.535156 C 110.472656 327.375 101.355469 329.707031 94.753906 326.664062 C 83.640625 321.535156 84.410156 299.757812 84.496094 290.125 C 84.710938 266.40625 83.363281 243.933594 83.363281 220.082031 C 83.359375 182.863281 83.363281 145.644531 83.363281 108.417969 C 83.363281 96.4375 82.550781 84.460938 82.820312 72.480469 C 83.015625 63.71875 82.527344 51.050781 92.558594 48.753906 C 107.835938 45.257812 123.867188 45.285156 139.238281 46.414062 C 155.453125 47.609375 169.824219 45.605469 186.0625 45.734375 C 204.035156 45.875 223.867188 46.746094 241.839844 46.738281 C 257.464844 46.738281 268.230469 45.320312 283.824219 45.859375 C 292.234375 46.148438 306.382812 50.742188 310.003906 59.152344 C 311.347656 62.28125 312.457031 74.523438 311.425781 82.847656 C 309.65625 97.1875 308.945312 112.054688 309.378906 126.496094 C 310.304688 157.617188 310.703125 188.816406 310.089844 219.945312 C 309.78125 235.589844 310.746094 251.214844 309.988281 266.855469 C 309.226562 282.613281 311.910156 298.800781 310.613281 314.378906 C 310.265625 318.59375 308.882812 321.511719 306.828125 323.5 Z M 306.828125 323.5"/><g clip-path="url(#b)"><path fill="#6D98F4" d="M 295.878906 327.382812 C 290.542969 332.546875 282 331.5625 275.242188 331.242188 C 264.480469 330.726562 253.734375 330.273438 242.957031 330.136719 C 212.816406 329.753906 182.671875 329.882812 152.527344 330.054688 C 134.300781 330.160156 119.949219 331.914062 101.730469 331.53125 C 93.941406 331.371094 84.566406 333.765625 77.777344 330.632812 C 66.347656 325.359375 67.140625 302.964844 67.230469 293.058594 C 67.449219 268.667969 66.0625 245.554688 66.0625 221.027344 C 66.0625 182.75 66.066406 144.46875 66.0625 106.183594 C 66.0625 93.867188 65.230469 81.550781 65.503906 69.226562 C 65.707031 60.214844 65.203125 47.191406 75.519531 44.828125 C 91.230469 41.226562 107.714844 41.253906 123.523438 42.421875 C 140.203125 43.648438 154.980469 41.589844 171.683594 41.722656 C 190.164062 41.867188 210.558594 42.761719 229.042969 42.757812 C 245.113281 42.753906 256.183594 41.296875 272.222656 41.851562 C 280.871094 42.148438 295.421875 46.875 299.144531 55.523438 C 300.527344 58.738281 301.671875 71.332031 300.613281 79.890625 C 298.789062 94.636719 298.0625 109.929688 298.503906 124.78125 C 299.457031 156.789062 299.867188 188.871094 299.234375 220.886719 C 298.917969 236.976562 299.914062 253.046875 299.132812 269.128906 C 298.347656 285.335938 301.109375 301.984375 299.777344 318.003906 C 299.414062 322.335938 297.992188 325.332031 295.878906 327.382812 Z M 295.878906 327.382812"/></g><path fill="#FFF" d="M 88.90625 73.109375 C 94.777344 67.6875 86.800781 59.371094 80.785156 62.972656 C 72.792969 67.757812 82.585938 78.949219 88.90625 73.109375 Z M 88.90625 73.109375"/><path fill="#ACBFC3" d="M 69.152344 65.597656 C 71.304688 65.398438 73.457031 65.21875 75.621094 65.09375 C 78.617188 64.921875 83.144531 63.703125 85.816406 65.96875 C 89.351562 68.960938 85.625 71.402344 83.238281 72.070312 C 80.5 72.84375 77.40625 72.859375 74.609375 73.222656 C 72.0625 73.554688 54.207031 75.5625 57.894531 67.476562 C 59.636719 63.65625 66.480469 65.851562 69.152344 65.597656 Z M 69.152344 65.597656"/><path fill="#FFF" d="M 88.90625 99.480469 C 94.777344 94.058594 86.800781 85.742188 80.785156 89.34375 C 72.792969 94.128906 82.585938 105.316406 88.90625 99.480469 Z M 88.90625 99.480469"/><path fill="#ACBFC3" d="M 69.152344 91.96875 C 71.304688 91.765625 73.457031 91.585938 75.621094 91.460938 C 78.617188 91.292969 83.144531 90.074219 85.816406 92.339844 C 89.351562 95.328125 85.625 97.769531 83.238281 98.441406 C 80.5 99.210938 77.40625 99.230469 74.609375 99.59375 C 72.0625 99.925781 54.207031 101.929688 57.894531 93.847656 C 59.636719 90.027344 66.480469 92.21875 69.152344 91.96875 Z M 69.152344 91.96875"/><path fill="#FFF" d="M 88.90625 125.847656 C 94.777344 120.425781 86.800781 112.109375 80.785156 115.710938 C 72.792969 120.496094 82.585938 131.6875 88.90625 125.847656 Z M 88.90625 125.847656"/><path fill="#ACBFC3" d="M 69.152344 118.339844 C 71.304688 118.136719 73.457031 117.953125 75.621094 117.832031 C 78.617188 117.660156 83.144531 116.441406 85.816406 118.707031 C 89.351562 121.699219 85.625 124.140625 83.238281 124.8125 C 80.5 125.582031 77.40625 125.597656 74.609375 125.960938 C 72.0625 126.292969 54.207031 128.300781 57.894531 120.214844 C 59.636719 116.394531 66.480469 118.585938 69.152344 118.339844 Z M 69.152344 118.339844"/><path fill="#FFF" d="M 88.90625 152.21875 C 94.777344 146.792969 86.800781 138.480469 80.785156 142.078125 C 72.792969 146.867188 82.585938 158.054688 88.90625 152.21875 Z M 88.90625 152.21875"/><path fill="#ACBFC3" d="M 69.152344 144.707031 C 71.304688 144.503906 73.457031 144.324219 75.621094 144.199219 C 78.617188 144.03125 83.144531 142.8125 85.816406 145.078125 C 89.351562 148.070312 85.625 150.507812 83.238281 151.179688 C 80.5 151.949219 77.40625 151.964844 74.609375 152.332031 C 72.0625 152.664062 54.207031 154.667969 57.894531 146.585938 C 59.636719 142.765625 66.480469 144.957031 69.152344 144.707031 Z M 69.152344 144.707031"/><path fill="#FFF" d="M 88.90625 178.585938 C 94.777344 173.164062 86.800781 164.847656 80.785156 168.449219 C 72.792969 173.234375 82.585938 184.425781 88.90625 178.585938 Z M 88.90625 178.585938"/><path fill="#ACBFC3" d="M 69.152344 171.074219 C 71.304688 170.871094 73.457031 170.691406 75.621094 170.570312 C 78.617188 170.398438 83.144531 169.179688 85.816406 171.445312 C 89.351562 174.4375 85.625 176.875 83.238281 177.546875 C 80.5 178.316406 77.40625 178.335938 74.609375 178.699219 C 72.0625 179.03125 54.207031 181.035156 57.894531 172.953125 C 59.636719 169.132812 66.480469 171.328125 69.152344 171.074219 Z M 69.152344 171.074219"/><path fill="#FFF" d="M 88.90625 204.957031 C 94.777344 199.53125 86.800781 191.21875 80.785156 194.820312 C 72.792969 199.601562 82.585938 210.792969 88.90625 204.957031 Z M 88.90625 204.957031"/><path fill="#ACBFC3" d="M 69.152344 197.445312 C 71.304688 197.242188 73.457031 197.0625 75.621094 196.9375 C 78.617188 196.765625 83.144531 195.546875 85.816406 197.8125 C 89.351562 200.804688 85.625 203.246094 83.238281 203.917969 C 80.5 204.6875 77.40625 204.703125 74.609375 205.070312 C 72.0625 205.402344 54.207031 207.40625 57.894531 199.324219 C 59.636719 195.503906 66.480469 197.695312 69.152344 197.445312 Z M 69.152344 197.445312"/><path fill="#FFF" d="M 88.90625 231.324219 C 94.777344 225.902344 86.800781 217.585938 80.785156 221.1875 C 72.792969 225.972656 82.585938 237.164062 88.90625 231.324219 Z M 88.90625 231.324219"/><path fill="#ACBFC3" d="M 69.152344 223.8125 C 71.304688 223.609375 73.457031 223.429688 75.621094 223.308594 C 78.617188 223.136719 83.144531 221.917969 85.816406 224.183594 C 89.351562 227.175781 85.625 229.613281 83.238281 230.285156 C 80.5 231.054688 77.40625 231.074219 74.609375 231.4375 C 72.0625 231.769531 54.207031 233.773438 57.894531 225.691406 C 59.636719 221.871094 66.480469 224.0625 69.152344 223.8125 Z M 69.152344 223.8125"/><path fill="#FFF" d="M 88.90625 257.695312 C 94.777344 252.269531 86.800781 243.957031 80.785156 247.558594 C 72.792969 252.339844 82.585938 263.53125 88.90625 257.695312 Z M 88.90625 257.695312"/><path fill="#ACBFC3" d="M 69.152344 250.183594 C 71.304688 249.980469 73.457031 249.800781 75.621094 249.675781 C 78.617188 249.503906 83.144531 248.285156 85.816406 250.550781 C 89.351562 253.542969 85.625 255.984375 83.238281 256.65625 C 80.5 257.425781 77.40625 257.441406 74.609375 257.808594 C 72.0625 258.140625 54.207031 260.144531 57.894531 252.0625 C 59.636719 248.238281 66.480469 250.433594 69.152344 250.183594 Z M 69.152344 250.183594"/><path fill="#FFF" d="M 88.90625 284.0625 C 94.777344 278.640625 86.800781 270.324219 80.785156 273.925781 C 72.792969 278.710938 82.585938 289.898438 88.90625 284.0625 Z M 88.90625 284.0625"/><path fill="#ACBFC3" d="M 69.152344 276.550781 C 71.304688 276.347656 73.457031 276.167969 75.621094 276.042969 C 78.617188 275.875 83.144531 274.65625 85.816406 276.921875 C 89.351562 279.914062 85.625 282.351562 83.238281 283.023438 C 80.5 283.792969 77.40625 283.808594 74.609375 284.175781 C 72.0625 284.507812 54.207031 286.511719 57.894531 278.429688 C 59.636719 274.609375 66.480469 276.800781 69.152344 276.550781 Z M 69.152344 276.550781"/><path fill="#FFF" d="M 88.90625 310.429688 C 94.777344 305.007812 86.800781 296.691406 80.785156 300.292969 C 72.792969 305.078125 82.585938 316.269531 88.90625 310.429688 Z M 88.90625 310.429688"/><path fill="#ACBFC3" d="M 69.152344 302.917969 C 71.304688 302.714844 73.457031 302.535156 75.621094 302.414062 C 78.617188 302.242188 83.144531 301.023438 85.816406 303.289062 C 89.351562 306.28125 85.625 308.71875 83.238281 309.390625 C 80.5 310.160156 77.40625 310.179688 74.609375 310.546875 C 72.0625 310.875 54.207031 312.882812 57.894531 304.796875 C 59.636719 300.976562 66.480469 303.171875 69.152344 302.917969 Z M 69.152344 302.917969"/><g clip-path="url(#c)"><g clip-path="url(#d)"><g clip-path="url(#e)"><path fill="#FFF" d="M 116.378906 216.679688 L 120.558594 226.042969 L 115.109375 228.476562 C 114.371094 228.804688 113.503906 228.472656 113.175781 227.734375 L 110.191406 221.050781 C 109.859375 220.3125 110.191406 219.441406 110.925781 219.113281 Z M 116.378906 216.679688"/></g></g></g><g clip-path="url(#f)"><g clip-path="url(#g)"><g clip-path="url(#h)"><path fill="#FFF" d="M 269.210938 164.316406 L 274.15625 175.390625 C 275.984375 179.492188 274.152344 184.320312 270.074219 186.140625 C 266.011719 187.953125 261.195312 186.097656 259.363281 182 L 241.820312 142.714844 C 239.988281 138.613281 241.820312 133.789062 245.882812 131.972656 C 249.960938 130.152344 254.78125 132.007812 256.609375 136.109375 L 261.558594 147.183594 Z M 269.210938 164.316406"/></g></g></g><g clip-path="url(#i)"><g clip-path="url(#j)"><g clip-path="url(#k)"><path fill="#FFF" d="M 274.546875 147.652344 L 277.53125 154.332031 C 277.859375 155.070312 277.527344 155.941406 276.792969 156.269531 L 271.339844 158.703125 L 267.160156 149.339844 L 272.613281 146.90625 C 273.347656 146.578125 274.214844 146.914062 274.546875 147.652344 Z M 274.546875 147.652344"/></g></g></g><g clip-path="url(#l)"><g clip-path="url(#m)"><g clip-path="url(#n)"><path fill="#FFF" d="M 255.496094 183.726562 L 259.84375 193.457031 C 262.210938 198.761719 259.855469 205.011719 254.574219 207.371094 L 252.929688 208.105469 C 247.652344 210.460938 241.425781 208.046875 239.054688 202.742188 L 229.765625 181.933594 L 222.109375 164.796875 L 212.820312 143.992188 C 210.449219 138.6875 212.808594 132.4375 218.085938 130.078125 L 219.730469 129.34375 C 225.007812 126.988281 231.238281 129.402344 233.605469 134.707031 L 237.953125 144.441406 Z M 255.496094 183.726562"/></g></g></g><g clip-path="url(#o)"><g clip-path="url(#p)"><g clip-path="url(#q)"><path fill="#FFF" d="M 163.558594 195.609375 L 219.980469 170.410156 L 224.160156 179.777344 L 167.738281 204.972656 Z M 163.558594 195.609375"/></g></g></g><g clip-path="url(#r)"><g clip-path="url(#s)"><g clip-path="url(#t)"><path fill="#FFF" d="M 165.609375 210.585938 L 174.902344 231.394531 C 177.269531 236.695312 174.910156 242.945312 169.632812 245.304688 L 167.988281 246.039062 C 162.710938 248.394531 156.484375 245.980469 154.113281 240.675781 L 149.765625 230.941406 L 132.222656 191.660156 L 127.875 181.925781 C 125.507812 176.621094 127.867188 170.371094 133.144531 168.015625 L 134.789062 167.28125 C 140.066406 164.921875 146.292969 167.339844 148.664062 172.640625 L 157.957031 193.449219 Z M 165.609375 210.585938"/></g></g></g><g clip-path="url(#u)"><g clip-path="url(#v)"><g clip-path="url(#w)"><path fill="#FFF" d="M 128.355469 193.386719 L 145.902344 232.667969 C 147.730469 236.769531 145.898438 241.597656 141.835938 243.410156 C 137.757812 245.230469 132.9375 243.375 131.109375 239.277344 L 126.164062 228.203125 L 118.511719 211.066406 L 113.566406 199.992188 C 111.734375 195.890625 113.566406 191.066406 117.648438 189.242188 C 121.707031 187.429688 126.527344 189.285156 128.355469 193.386719 Z M 128.355469 193.386719"/></g></g></g></svg>